<svg xmlns="http://www.w3.org/2000/svg" viewBox="0 0 512 512" width="512" height="512">
  <rect width="512" height="512" rx="100" fill="#d97706"/>
  <path d="M256 100c-66.3 0-120 53.7-120 120v160c0 33.1 26.9 60 60 60h120c33.1 0 60-26.9 60-60V220c0-66.3-53.7-120-120-120zm60 280c0 11-9 20-20 20H196c-11 0-20-9-20-20V220c0-44.2 35.8-80 80-80s80 35.8 80 80v160z" fill="#fff"/>
  <path d="M376 220h20c22.1 0 40 17.9 40 40v20c0 22.1-17.9 40-40 40h-20v-100z" fill="#fff"/>
  <ellipse cx="256" cy="190" rx="60" ry="12" fill="#fff" opacity="0.3"/>
</svg>
